<svg xmlns="http://www.w3.org/2000/svg" viewBox="0 0 360 240" fill="none" stroke-linecap="round" stroke-linejoin="round"><title>mountain</title><g transform="translate(-1.2 0) scale(1.0)"><path d="M25 195 83 117l28 32 58-87 66 86 28-36 72 83z" fill="#173f4c" stroke="#173f4c" stroke-width="5.2" opacity="1"/></g><g transform="translate(0.0 1) scale(1.015)"><path d="m156 82 13-20 14 21-12-5-7 9" fill="none" stroke="#dd7656" stroke-width="4.4" opacity="1"/></g><g transform="translate(1.2 -1) scale(1.0)"><path d="M22 205L338 205" fill="none" stroke="#e0bd67" stroke-width="4.4" opacity="1"/></g><path d="M64.8 67.2h18.72" stroke="#fffdf6" stroke-width="2.6"/><path d="M126 93.6h18.72" stroke="#fffdf6" stroke-width="2.6"/><path d="M187.2 67.2h18.72" stroke="#fffdf6" stroke-width="2.6"/><path d="M248.4 93.6h18.72" stroke="#fffdf6" stroke-width="2.6"/><circle cx="50.4" cy="43.2" r="1.2" fill="#173f4c"/><circle cx="183.6" cy="112.8" r="1.75" fill="#dd7656"/><circle cx="61.2" cy="182.4" r="2.3" fill="#e0bd67"/><circle cx="194.4" cy="93.6" r="1.2" fill="#173f4c"/><circle cx="72" cy="163.2" r="1.75" fill="#dd7656"/><circle cx="205.2" cy="74.4" r="2.3" fill="#e0bd67"/><circle cx="82.8" cy="144" r="1.2" fill="#173f4c"/><circle cx="216" cy="55.2" r="1.75" fill="#dd7656"/><circle cx="93.6" cy="124.8" r="2.3" fill="#e0bd67"/><circle cx="226.8" cy="194.4" r="1.2" fill="#173f4c"/><circle cx="104.4" cy="105.6" r="1.75" fill="#dd7656"/><circle cx="237.6" cy="175.2" r="2.3" fill="#e0bd67"/></svg>