<svg xmlns="http://www.w3.org/2000/svg" viewBox="0 0 300 100" fill="none" stroke-linecap="round" stroke-linejoin="round"><title>sticky-note</title><g transform="translate(-1.2 0) scale(1.0)"><path d="M8 8h284l-8 83H16zM22 24h256M22 39h184M22 54h236M22 69h144M246 71l18 14 17-14" fill="#173f4c" stroke="#173f4c" stroke-width="5.2" opacity="1"/></g><path d="M54 28h15.6" stroke="#fffdf6" stroke-width="2.6"/><path d="M105 39h15.6" stroke="#fffdf6" stroke-width="2.6"/><path d="M156 28h15.6" stroke="#fffdf6" stroke-width="2.6"/><path d="M207 39h15.6" stroke="#fffdf6" stroke-width="2.6"/><circle cx="42" cy="18" r="1.2" fill="#173f4c"/><circle cx="153" cy="47" r="1.75" fill="#dd7656"/><circle cx="51" cy="76" r="2.3" fill="#e0bd67"/><circle cx="162" cy="39" r="1.2" fill="#173f4c"/><circle cx="60" cy="68" r="1.75" fill="#dd7656"/><circle cx="171" cy="31" r="2.3" fill="#e0bd67"/><circle cx="69" cy="60" r="1.2" fill="#173f4c"/><circle cx="180" cy="23" r="1.75" fill="#dd7656"/><circle cx="78" cy="52" r="2.3" fill="#e0bd67"/><circle cx="189" cy="81" r="1.2" fill="#173f4c"/><circle cx="87" cy="44" r="1.75" fill="#dd7656"/><circle cx="198" cy="73" r="2.3" fill="#e0bd67"/></svg>