<svg xmlns="http://www.w3.org/2000/svg" viewBox="0 0 320 10" fill="none" stroke-linecap="round" stroke-linejoin="round"><title>measurement-rule</title><path d="M0 5L320 5" fill="none" stroke="#241f1d" stroke-width="0.78" opacity="0.72"/><path d="M0 1v8" fill="none" stroke="#241f1d" stroke-width="0.95" opacity="0.79"/><path d="M10 1v5" fill="none" stroke="#241f1d" stroke-width="1.12" opacity="0.86"/><path d="M20 1v5" fill="none" stroke="#241f1d" stroke-width="0.78" opacity="0.93"/><path d="M30 1v5" fill="none" stroke="#241f1d" stroke-width="0.95" opacity="0.72"/><path d="M40 1v8" fill="none" stroke="#241f1d" stroke-width="1.12" opacity="0.79"/><path d="M50 1v5" fill="none" stroke="#241f1d" stroke-width="0.78" opacity="0.86"/><path d="M60 1v5" fill="none" stroke="#241f1d" stroke-width="0.95" opacity="0.93"/><path d="M70 1v5" fill="none" stroke="#241f1d" stroke-width="1.12" opacity="0.72"/><path d="M80 1v8" fill="none" stroke="#241f1d" stroke-width="0.78" opacity="0.79"/><path d="M90 1v5" fill="none" stroke="#241f1d" stroke-width="0.95" opacity="0.86"/><path d="M100 1v5" fill="none" stroke="#241f1d" stroke-width="1.12" opacity="0.93"/><path d="M110 1v5" fill="none" stroke="#241f1d" stroke-width="0.78" opacity="0.72"/><path d="M120 1v8" fill="none" stroke="#241f1d" stroke-width="0.95" opacity="0.79"/><path d="M130 1v5" fill="none" stroke="#241f1d" stroke-width="1.12" opacity="0.86"/><path d="M140 1v5" fill="none" stroke="#241f1d" stroke-width="0.78" opacity="0.93"/><path d="M150 1v5" fill="none" stroke="#241f1d" stroke-width="0.95" opacity="0.72"/><path d="M160 1v8" fill="none" stroke="#241f1d" stroke-width="1.12" opacity="0.79"/><path d="M170 1v5" fill="none" stroke="#241f1d" stroke-width="0.78" opacity="0.86"/><path d="M180 1v5" fill="none" stroke="#241f1d" stroke-width="0.95" opacity="0.93"/><path d="M190 1v5" fill="none" stroke="#241f1d" stroke-width="1.12" opacity="0.72"/><path d="M200 1v8" fill="none" stroke="#241f1d" stroke-width="0.78" opacity="0.79"/><path d="M210 1v5" fill="none" stroke="#241f1d" stroke-width="0.95" opacity="0.86"/><path d="M220 1v5" fill="none" stroke="#241f1d" stroke-width="1.12" opacity="0.93"/><path d="M230 1v5" fill="none" stroke="#241f1d" stroke-width="0.78" opacity="0.72"/><path d="M240 1v8" fill="none" stroke="#241f1d" stroke-width="0.95" opacity="0.79"/><path d="M250 1v5" fill="none" stroke="#241f1d" stroke-width="1.12" opacity="0.86"/><path d="M260 1v5" fill="none" stroke="#241f1d" stroke-width="0.78" opacity="0.93"/><path d="M270 1v5" fill="none" stroke="#241f1d" stroke-width="0.95" opacity="0.72"/><path d="M280 1v8" fill="none" stroke="#241f1d" stroke-width="1.12" opacity="0.79"/><path d="M290 1v5" fill="none" stroke="#241f1d" stroke-width="0.78" opacity="0.86"/><path d="M300 1v5" fill="none" stroke="#241f1d" stroke-width="0.95" opacity="0.93"/><path d="M310 1v5" fill="none" stroke="#241f1d" stroke-width="1.12" opacity="0.72"/><path d="M320 1v8" fill="none" stroke="#241f1d" stroke-width="0.78" opacity="0.79"/><path d="M41 6l64 -3" stroke="#241f1d" stroke-width=".72" opacity=".7"/><path d="M108 7l57 3" stroke="#241f1d" stroke-width=".6" opacity=".55"/></svg>