<svg xmlns="http://www.w3.org/2000/svg" viewBox="0 0 120 240" fill="none" stroke-linecap="round" stroke-linejoin="round"><title>route</title><g transform="translate(-1 0.0) skewX(-1)"><path d="M60 15v48q0 22-24 22t-24 24q0 23 24 23h24q24 0 24 24v29q0 21-24 21H60v-12m0-179h8m-8 28h8m-8 28h8m-8 28h8m-8 28h8m-8 28h8" fill="none" stroke="#243f4a" stroke-width="5.8" opacity="0.75" stroke-dasharray="18 2 27 1"/></g><g transform="translate(0 1.5) skewX(0)"><circle cx="60" cy="15" r="8" fill="none" stroke="#243f4a" stroke-width="3.4" opacity="0.85"/></g><g transform="translate(1 0.0) skewX(1)"><circle cx="60" cy="225" r="8" fill="none" stroke="#243f4a" stroke-width="6.6" opacity="0.95"/></g><g transform="translate(-1 1.5) skewX(-1)"><circle cx="36" cy="125" r="5" fill="none" stroke="#243f4a" stroke-width="2.7" opacity="0.75"/></g><path d="M15.6 184.8q4.8 -19.2 11.4 -4.32q3 .5 6.24 -10.8" stroke="#243f4a" stroke-width="1.20"/><path d="M34.8 193.2q4.8 -19.2 11.4 -4.32q3 .5 6.24 -10.8" stroke="#243f4a" stroke-width="1.55"/><path d="M54 184.8q4.8 -19.2 11.4 -4.32q3 .5 6.24 -10.8" stroke="#243f4a" stroke-width="1.90"/><path d="M73.2 193.2q4.8 -19.2 11.4 -4.32q3 .5 6.24 -10.8" stroke="#243f4a" stroke-width="2.25"/><path d="M92.4 184.8q4.8 -19.2 11.4 -4.32q3 .5 6.24 -10.8" stroke="#243f4a" stroke-width="2.60"/></svg>