<svg xmlns="http://www.w3.org/2000/svg" viewBox="0 0 320 40" shape-rendering="crispEdges" fill="none" stroke-linecap="round" stroke-linejoin="round"><title>heading-band</title><path d="M4 8h312v28H4zM16 20h48m12 0h72m16 0h24m16 0h52m12 0h48" fill="#263c4c" stroke="#263c4c" stroke-width="4" opacity="1"/><rect x="136" y="24" width="4" height="4" fill="#263c4c" opacity="0.60"/><rect x="232" y="12" width="4" height="4" fill="#263c4c" opacity="0.75"/><rect x="184" y="20" width="4" height="4" fill="#263c4c" opacity="0.60"/><rect x="40" y="8" width="4" height="4" fill="#263c4c" opacity="0.75"/><rect x="236" y="16" width="4" height="4" fill="#263c4c" opacity="0.60"/><rect x="88" y="4" width="4" height="4" fill="#263c4c" opacity="0.75"/><rect x="40" y="12" width="4" height="4" fill="#263c4c" opacity="0.60"/><rect x="140" y="32" width="4" height="4" fill="#263c4c" opacity="0.75"/><rect x="92" y="8" width="4" height="4" fill="#263c4c" opacity="0.60"/><rect x="192" y="28" width="4" height="4" fill="#263c4c" opacity="0.75"/><rect x="144" y="4" width="4" height="4" fill="#263c4c" opacity="0.60"/><rect x="244" y="24" width="4" height="4" fill="#263c4c" opacity="0.75"/></svg>