<svg xmlns="http://www.w3.org/2000/svg" viewBox="0 0 240 240" shape-rendering="crispEdges" fill="none" stroke-linecap="round" stroke-linejoin="round"><title>tableware</title><circle cx="92" cy="120" r="52" fill="#263c4c" stroke="#263c4c" stroke-width="4" opacity="1"/><circle cx="92" cy="120" r="36" fill="none" stroke="#263c4c" stroke-width="4" opacity="1"/><path d="M168 72v100m0-100-8 32h20zM200 72v100m-8-100v28m16-28v28" fill="none" stroke="#263c4c" stroke-width="4" opacity="1"/><rect x="100" y="140" width="4" height="4" fill="#263c4c" opacity="0.60"/><rect x="176" y="76" width="4" height="4" fill="#263c4c" opacity="0.75"/><rect x="140" y="120" width="4" height="4" fill="#263c4c" opacity="0.60"/><rect x="28" y="52" width="4" height="4" fill="#263c4c" opacity="0.75"/><rect x="176" y="100" width="4" height="4" fill="#263c4c" opacity="0.60"/><rect x="68" y="32" width="4" height="4" fill="#263c4c" opacity="0.75"/><rect x="32" y="76" width="4" height="4" fill="#263c4c" opacity="0.60"/><rect x="104" y="188" width="4" height="4" fill="#263c4c" opacity="0.75"/><rect x="68" y="56" width="4" height="4" fill="#263c4c" opacity="0.60"/><rect x="144" y="168" width="4" height="4" fill="#263c4c" opacity="0.75"/><rect x="108" y="32" width="4" height="4" fill="#263c4c" opacity="0.60"/><rect x="184" y="148" width="4" height="4" fill="#263c4c" opacity="0.75"/></svg>