<svg xmlns="http://www.w3.org/2000/svg" viewBox="0 0 320 40" fill="none" stroke-linecap="round" stroke-linejoin="round"><title>heading-band</title><g transform="translate(2 2)"><path d="M4 6h312v28H4zM14 20h46m11 0h72m16 0h24m16 0h52m12 0h48" fill="#c9b89c" stroke="#81685c" stroke-width="4.2" opacity="0.48"/></g><g transform="translate(0 0) rotate(-1 160 20)"><path d="M4 6h312v28H4zM14 20h46m11 0h72m16 0h24m16 0h52m12 0h48" fill="#d26f55" stroke="#d26f55" stroke-width="4.2" opacity="1"/></g><path d="M249.6 4.8l25.6 1l-6.4 1.4l-19.2 -0.32z" fill="#e8d9b8" stroke="#527b70" stroke-width="1.5"/><path d="M38.4 32.8l19.2 -0.72l8.96 2.08l-25.6 0.2z" fill="#d26f55" stroke="#527b70" stroke-width="1.4"/></svg>