<svg xmlns="http://www.w3.org/2000/svg" viewBox="0 0 300 100" fill="none" stroke-linecap="round" stroke-linejoin="round"><title>sticky-note</title><g transform="translate(2 2)"><path d="M8 8h284l-8 83H16zM22 24h256M22 39h184M22 54h236M22 69h144M246 71l18 14 17-14" fill="#c9b89c" stroke="#81685c" stroke-width="4.2" opacity="0.48"/></g><g transform="translate(0 0) rotate(-1 150 50)"><path d="M8 8h284l-8 83H16zM22 24h256M22 39h184M22 54h236M22 69h144M246 71l18 14 17-14" fill="#d26f55" stroke="#d26f55" stroke-width="4.2" opacity="1"/></g><path d="M234 12l24 2.5l-6 3.5l-18 -0.8z" fill="#e8d9b8" stroke="#527b70" stroke-width="1.5"/><path d="M36 82l18 -1.8l8.4 5.2l-24 0.5z" fill="#d26f55" stroke="#527b70" stroke-width="1.4"/></svg>