<svg xmlns="http://www.w3.org/2000/svg" viewBox="0 0 240 240" fill="none" stroke-linecap="round" stroke-linejoin="round"><title>car</title><path d="M39 153l12-37q4-12 17-14l28-4 24-31h49l27 34 14 6q10 4 12 16l5 30H39zM83 98l20 1 20-27h39l22 28M40 158h183v22H40z" fill="none" stroke="#373735" stroke-width="0.90" opacity="0.48"/><circle cx="78" cy="177" r="17" fill="none" stroke="#373735" stroke-width="1.14" opacity="0.60"/><circle cx="184" cy="177" r="17" fill="none" stroke="#373735" stroke-width="1.38" opacity="0.72"/><path d="M40 172l24.0 -16.0" stroke="#373735" stroke-width="0.65" opacity="0.34"/><path d="M42 178l24.0 -16.0" stroke="#373735" stroke-width="0.90" opacity="0.44"/><path d="M44 184l24.0 -16.0" stroke="#373735" stroke-width="1.15" opacity="0.54"/><path d="M40 190l24.0 -16.0" stroke="#373735" stroke-width="0.65" opacity="0.64"/><path d="M42 196l24.0 -16.0" stroke="#373735" stroke-width="0.90" opacity="0.34"/><path d="M44 202l24.0 -16.0" stroke="#373735" stroke-width="1.15" opacity="0.44"/><path d="M40 208l24.0 -16.0" stroke="#373735" stroke-width="0.65" opacity="0.54"/><path d="M42 214l24.0 -16.0" stroke="#373735" stroke-width="0.90" opacity="0.64"/><path d="M139 187l20.0 -13.0" stroke="#373735" stroke-width=".7" opacity=".42"/><path d="M145 187l20.0 -13.0" stroke="#373735" stroke-width=".7" opacity=".42"/><path d="M151 187l20.0 -13.0" stroke="#373735" stroke-width=".7" opacity=".42"/><path d="M157 187l20.0 -13.0" stroke="#373735" stroke-width=".7" opacity=".42"/><g stroke="#373735" fill="none" stroke-linecap="round"><path d="M24.0 211.2q19.2 -6.0 38.4 0" stroke-width="1" opacity=".36"/><path d="M165.6 48.0q16.8 -8.4 36.0 0" stroke-width=".8" opacity=".28"/></g></svg>