<svg xmlns="http://www.w3.org/2000/svg" viewBox="0 0 320 240" fill="none" stroke-linecap="round" stroke-linejoin="round"><title>grid-panel</title><rect x="12" y="12" width="296" height="216" rx="0" fill="none" stroke="#373735" stroke-width="0.90" opacity="0.48"/><rect x="25" y="26" width="270" height="188" rx="0" fill="none" stroke="#373735" stroke-width="1.14" opacity="0.60"/><path d="M55 26L55 214" fill="none" stroke="#373735" stroke-width="1.38" opacity="0.72"/><path d="M85 26L85 214" fill="none" stroke="#373735" stroke-width="1.62" opacity="0.84"/><path d="M115 26L115 214" fill="none" stroke="#373735" stroke-width="1.86" opacity="0.48"/><path d="M145 26L145 214" fill="none" stroke="#373735" stroke-width="0.90" opacity="0.60"/><path d="M175 26L175 214" fill="none" stroke="#373735" stroke-width="1.14" opacity="0.72"/><path d="M205 26L205 214" fill="none" stroke="#373735" stroke-width="1.38" opacity="0.84"/><path d="M235 26L235 214" fill="none" stroke="#373735" stroke-width="1.62" opacity="0.48"/><path d="M265 26L265 214" fill="none" stroke="#373735" stroke-width="1.86" opacity="0.60"/><path d="M295 26L295 214" fill="none" stroke="#373735" stroke-width="0.90" opacity="0.72"/><path d="M25 56L295 56" fill="none" stroke="#373735" stroke-width="1.14" opacity="0.84"/><path d="M25 86L295 86" fill="none" stroke="#373735" stroke-width="1.38" opacity="0.48"/><path d="M25 116L295 116" fill="none" stroke="#373735" stroke-width="1.62" opacity="0.60"/><path d="M25 146L295 146" fill="none" stroke="#373735" stroke-width="1.86" opacity="0.72"/><path d="M25 176L295 176" fill="none" stroke="#373735" stroke-width="0.90" opacity="0.84"/><path d="M25 206L295 206" fill="none" stroke="#373735" stroke-width="1.14" opacity="0.48"/><path d="M54 172l24.0 -16.0" stroke="#373735" stroke-width="0.65" opacity="0.34"/><path d="M56 180l24.0 -16.0" stroke="#373735" stroke-width="0.90" opacity="0.44"/><path d="M58 188l24.0 -16.0" stroke="#373735" stroke-width="1.15" opacity="0.54"/><path d="M54 196l24.0 -16.0" stroke="#373735" stroke-width="0.65" opacity="0.64"/><path d="M56 204l24.0 -16.0" stroke="#373735" stroke-width="0.90" opacity="0.34"/><path d="M58 212l24.0 -16.0" stroke="#373735" stroke-width="1.15" opacity="0.44"/><path d="M185 187l20.0 -13.0" stroke="#373735" stroke-width=".7" opacity=".42"/><path d="M193 187l20.0 -13.0" stroke="#373735" stroke-width=".7" opacity=".42"/><path d="M201 187l20.0 -13.0" stroke="#373735" stroke-width=".7" opacity=".42"/><path d="M209 187l20.0 -13.0" stroke="#373735" stroke-width=".7" opacity=".42"/><g stroke="#373735" fill="none" stroke-linecap="round"><path d="M32.0 211.2q25.6 -6.0 51.2 0" stroke-width="1" opacity=".36"/><path d="M220.8 48.0q22.4 -8.4 48.0 0" stroke-width=".8" opacity=".28"/></g></svg>